<svg class="icon line" width="32" height="32" id="shipping" xmlns="http://www.w3.org/2000/svg" viewBox="0 0 24 24"><path d="M16,15V6a1,1,0,0,0-1-1H4A1,1,0,0,0,3,6V16a1,1,0,0,0,1,1H6" style="fill: none; stroke: rgb(74, 86, 226); stroke-linecap: round; stroke-linejoin: round; stroke-width: 2;"></path><line x1="14" y1="17" x2="10" y2="17" style="fill: none; stroke: rgb(74, 86, 226); stroke-linecap: round; stroke-linejoin: round; stroke-width: 2;"></line><circle cx="8" cy="17" r="2" style="fill: none; stroke: rgb(74, 86, 226); stroke-linecap: round; stroke-linejoin: round; stroke-width: 2;"></circle><circle cx="16" cy="17" r="2" style="fill: none; stroke: rgb(74, 86, 226); stroke-linecap: round; stroke-linejoin: round; stroke-width: 2;"></circle><path d="M18,17h2a1,1,0,0,0,1-1V12L19.28,8.55a1,1,0,0,0-.9-.55H16" style="fill: none; stroke: rgb(74, 86, 226); stroke-linecap: round; stroke-linejoin: round; stroke-width: 2;"></path></svg>