<svg class="icon line" width="32" height="32" id="wallet" xmlns="http://www.w3.org/2000/svg" viewBox="0 0 24 24"><path d="M5,7A2,2,0,0,1,3,4.66,2.07,2.07,0,0,1,5.11,3H16a1,1,0,0,1,1,1V7" style="fill: none; stroke: rgb(74, 86, 226); stroke-linecap: round; stroke-linejoin: round; stroke-width: 2;"></path><path d="M5,21a2,2,0,0,1-2-2V5" style="fill: none; stroke: rgb(74, 86, 226); stroke-linecap: round; stroke-linejoin: round; stroke-width: 2;"></path><path d="M20,16v4a1,1,0,0,1-1,1H5" style="fill: none; stroke: rgb(74, 86, 226); stroke-linecap: round; stroke-linejoin: round; stroke-width: 2;"></path><path d="M5,7H19a1,1,0,0,1,1,1v4" style="fill: none; stroke: rgb(74, 86, 226); stroke-linecap: round; stroke-linejoin: round; stroke-width: 2;"></path><rect x="16" y="12" width="5" height="4" rx="1" style="fill: none; stroke: rgb(74, 86, 226); stroke-linecap: round; stroke-linejoin: round; stroke-width: 2;"></rect></svg>