<svg class="icon line-color" width="32" height="32" id="dashboard" data-name="Line color" xmlns="http://www.w3.org/2000/svg" viewBox="0 0 24 24"><path id="secondary" d="M20,8H15a1,1,0,0,1-1-1V4a1,1,0,0,1,1-1h5a1,1,0,0,1,1,1V7A1,1,0,0,1,20,8ZM10,20V17a1,1,0,0,0-1-1H4a1,1,0,0,0-1,1v3a1,1,0,0,0,1,1H9A1,1,0,0,0,10,20Z" style="fill: none; stroke: rgb(255, 195, 125); stroke-linecap: round; stroke-linejoin: round; stroke-width: 2;"></path><path id="primary" d="M9,12H4a1,1,0,0,1-1-1V4A1,1,0,0,1,4,3H9a1,1,0,0,1,1,1v7A1,1,0,0,1,9,12Zm12,8V13a1,1,0,0,0-1-1H15a1,1,0,0,0-1,1v7a1,1,0,0,0,1,1h5A1,1,0,0,0,21,20Z" style="fill: none; stroke: rgb(74, 86, 226); stroke-linecap: round; stroke-linejoin: round; stroke-width: 2;"></path></svg>