<svg class="icon line-color" width="32" height="32" id="discount" data-name="Line Color" xmlns="http://www.w3.org/2000/svg" viewBox="0 0 24 24"><path id="primary" d="M21.36,12c0,1-.86,1.79-1.14,2.67s-.1,2.08-.65,2.83-1.73.94-2.49,1.49-1.28,1.62-2.19,1.91S13,20.64,12,20.64s-2,.55-2.89.26S7.68,19.54,6.92,19,5,18.27,4.43,17.5s-.35-1.92-.65-2.83S2.64,13,2.64,12s.86-1.79,1.14-2.67.1-2.08.65-2.83S6.16,5.56,6.92,5,8.2,3.39,9.11,3.1,11,3.36,12,3.36s2-.55,2.89-.26S16.32,4.46,17.08,5,19,5.73,19.57,6.5s.35,1.92.65,2.83S21.36,11,21.36,12Z" style="fill: none; stroke: rgb(74, 86, 226); stroke-linecap: round; stroke-linejoin: round; stroke-width: 2;"></path><line id="secondary" x1="9" y1="15" x2="15" y2="9" style="fill: none; stroke: rgb(255, 195, 125); stroke-linecap: round; stroke-linejoin: round; stroke-width: 2;"></line><circle id="secondary-2" data-name="secondary" cx="14.5" cy="14.5" r="0.5" style="fill: none; stroke: rgb(255, 195, 125); stroke-linecap: round; stroke-linejoin: round; stroke-width: 2;"></circle><circle id="secondary-3" data-name="secondary" cx="9.5" cy="9.5" r="0.5" style="fill: none; stroke: rgb(255, 195, 125); stroke-linecap: round; stroke-linejoin: round; stroke-width: 2;"></circle></svg>