<svg class="icon line-color" width="32" height="32" id="help" data-name="Line color" xmlns="http://www.w3.org/2000/svg" viewBox="0 0 24 24"><path id="secondary" d="M10.9,8.15,9.53,3.35m3.57,4.8,1.37-4.8M3.35,14.47l4.8-1.37m0-2.2L3.35,9.53m9.75,6.32,1.37,4.8m-4.94,0,1.37-4.8m9.75-6.32-4.8,1.37m4.8,3.57-4.8-1.37" style="fill: none; stroke: rgb(255, 195, 125); stroke-linecap: round; stroke-linejoin: round; stroke-width: 2;"></path><path id="primary" d="M21,12a9,9,0,1,1-9-9A9,9,0,0,1,21,12ZM12,8a4,4,0,1,0,4,4A4,4,0,0,0,12,8Z" style="fill: none; stroke: rgb(74, 86, 226); stroke-linecap: round; stroke-linejoin: round; stroke-width: 2;"></path></svg>