<svg class="icon line-color" width="32" height="32" id="money-alt" data-name="Line Color" xmlns="http://www.w3.org/2000/svg" viewBox="0 0 24 24"><circle id="secondary" cx="10" cy="10" r="1" style="fill: none; stroke: rgb(255, 195, 125); stroke-linecap: round; stroke-linejoin: round; stroke-width: 2;"></circle><path id="primary" d="M16,15H4a1,1,0,0,1-1-1V6A1,1,0,0,1,4,5H16a1,1,0,0,1,1,1v8A1,1,0,0,1,16,15ZM7,15v3a1,1,0,0,0,1,1H20a1,1,0,0,0,1-1V10a1,1,0,0,0-1-1H17" style="fill: none; stroke: rgb(74, 86, 226); stroke-linecap: round; stroke-linejoin: round; stroke-width: 2;"></path></svg>