<svg class="icon line-color" width="32" height="32" id="qr-code" data-name="Line Color" xmlns="http://www.w3.org/2000/svg" viewBox="0 0 24 24"><path id="secondary" d="M17,17H14V14h3Zm-3,4h5a2,2,0,0,0,2-2V14" style="fill: none; stroke: rgb(255, 195, 125); stroke-linecap: round; stroke-linejoin: round; stroke-width: 2;"></path><path id="primary" d="M9,10H4A1,1,0,0,1,3,9V4A1,1,0,0,1,4,3H9a1,1,0,0,1,1,1V9A1,1,0,0,1,9,10ZM21,9V4a1,1,0,0,0-1-1H15a1,1,0,0,0-1,1V9a1,1,0,0,0,1,1h5A1,1,0,0,0,21,9ZM10,20V15a1,1,0,0,0-1-1H4a1,1,0,0,0-1,1v5a1,1,0,0,0,1,1H9A1,1,0,0,0,10,20Z" style="fill: none; stroke: rgb(74, 86, 226); stroke-linecap: round; stroke-linejoin: round; stroke-width: 2;"></path></svg>