<svg class="icon line-color" width="32" height="32" id="shipping" data-name="Line Color" xmlns="http://www.w3.org/2000/svg" viewBox="0 0 24 24"><path id="primary" d="M6,17H4a1,1,0,0,1-1-1V6A1,1,0,0,1,4,5H15a1,1,0,0,1,1,1v9m-2,2H10m8,0h2a1,1,0,0,0,1-1V12L19.28,8.55a1,1,0,0,0-.9-.55H16" style="fill: none; stroke: rgb(74, 86, 226); stroke-linecap: round; stroke-linejoin: round; stroke-width: 2;"></path><path id="secondary" d="M10,17a2,2,0,1,1-2-2A2,2,0,0,1,10,17Zm6-2a2,2,0,1,0,2,2A2,2,0,0,0,16,15Z" style="fill: none; stroke: rgb(255, 195, 125); stroke-linecap: round; stroke-linejoin: round; stroke-width: 2;"></path></svg>