<svg class="icon line-color" width="32" height="32" id="sign-out" data-name="Line color" xmlns="http://www.w3.org/2000/svg" viewBox="0 0 24 24"><path id="secondary" d="M5,15,2,12,5,9M2,12H9" style="fill: none; stroke: rgb(255, 195, 125); stroke-linecap: round; stroke-linejoin: round; stroke-width: 2;"></path><path id="primary" d="M20.24,19.19l-6,1.5a1,1,0,0,1-1.24-1V4.28a1,1,0,0,1,1.24-1l6,1.5a1,1,0,0,1,.76,1V18.22A1,1,0,0,1,20.24,19.19ZM13,6H10A1,1,0,0,0,9,7V8m0,8v1a1,1,0,0,0,1,1h3" style="fill: none; stroke: rgb(74, 86, 226); stroke-linecap: round; stroke-linejoin: round; stroke-width: 2;"></path></svg>