<svg class="icon line-color" width="32" height="32" id="wallet" data-name="Line Color" xmlns="http://www.w3.org/2000/svg" viewBox="0 0 24 24"><path id="primary" d="M5,21a2,2,0,0,1-2-2V5M5,21H19a1,1,0,0,0,1-1V16M17,7V4a1,1,0,0,0-1-1H5.11A2.07,2.07,0,0,0,3,4.66,2,2,0,0,0,5,7M5,7H19a1,1,0,0,1,1,1v4" style="fill: none; stroke: rgb(74, 86, 226); stroke-linecap: round; stroke-linejoin: round; stroke-width: 2;"></path><rect id="secondary" x="16" y="12" width="5" height="4" rx="1" style="fill: none; stroke: rgb(255, 195, 125); stroke-linecap: round; stroke-linejoin: round; stroke-width: 2;"></rect></svg>